<svg viewBox="0 0 621.83 485.7" xmlns="http://www.w3.org/2000/svg" xmlns:xlink="http://www.w3.org/1999/xlink" overflow="hidden"><defs></defs><g id="Capa_2"><g id="Capa_1-2"><path d="M153.26 485.69C148.74 485.91 149 483.18 149.42 480.69 151 471.17 156.42 463.86 163.42 457.69 180.22 442.97 200.42 435.88 221.96 431.56 235.1 428.92 248.25 427.56 261.62 429.5 269.91 430.71 270.74 432.5 266.35 439.68 256.98 455.05 242.35 463.19 226.13 469.24 207.13 476.32 187.27 479.53 167.47 483.09 162.55 483.94 157.65 484.88 153.26 485.69Z" fill="#0D0D0D"/><path d="M371.68 428.51C396.99 429.3 421.25 434.51 443.55 446.83 456.78 454.12 468.06 463.62 472.24 479.14 473.98 485.61 473.42 486.35 466.99 485.14 441.99 480.57 416.61 477.47 392.72 468.14 379.22 462.86 366.9 455.7 358.28 443.52 356.56 441.09 355.16 438.42 353.69 435.82 352.22 433.22 353.1 431.45 355.9 430.49 360.998 428.884 366.344 428.213 371.68 428.51Z" fill="#0D0D0D"/><path d="M145.45 434.85C127.626 435.031 109.827 433.46 92.31 430.16 86.71 429.07 85.99 427.71 88.97 422.91 96.82 410.24 109.4 405.19 123.16 402.68 150.98 397.61 178.16 401.29 204.99 409.35 206.266 409.733 207.518 410.191 208.74 410.72 211.89 412.09 212.08 414.15 209.92 416.57 205.959 420.877 201.139 424.304 195.77 426.63 183.59 432.17 170.77 434.48 157.45 434.84 153.45 434.94 149.45 434.85 145.45 434.85Z" fill="#0D0D0D"/><path d="M476.6 435C459.4 434.9 442.34 434.1 426.31 426.75 421.182 424.344 416.536 421.023 412.6 416.95 409.49 413.83 410.24 411.95 414.02 410.43 424.15 406.43 434.78 404.43 445.46 402.78 464.65 399.78 483.85 399.17 502.96 403.59 515.18 406.41 525.87 411.59 532.89 422.59 536.14 427.68 535.59 428.99 529.69 430.13 512.184 433.407 494.41 435.037 476.6 435Z" fill="#0D0D0D"/><path d="M463.52 392.18C459.006 392.187 454.531 391.342 450.33 389.69 445.56 387.88 445.01 385.63 448.66 382.02 454.776 376.118 461.398 370.764 468.45 366.02 485.97 353.9 504.4 343.68 525.45 339.14 535.54 336.97 545.62 336.84 555.45 340.54 557.472 341.303 559.393 342.31 561.17 343.54 565.64 346.65 565.7 349.39 561.17 352.36 541.88 364.91 522.17 376.78 500.62 385.07 488.798 389.71 476.22 392.121 463.52 392.18Z" fill="#0D0D0D"/><path d="M154.59 392C142.33 392.39 130.91 388.82 119.79 384.26 99.2596 375.951 79.7517 365.312 61.65 352.55 55.83 348.4 56.04 346.22 62.33 342.6 73.63 336.12 85.82 336.6 97.74 339.4 121.3 344.91 141.88 356.73 160.85 371.47 164.79 374.53 168.64 377.73 172.28 381.13 177.28 385.76 176.77 387.49 170.28 390.01 165.25 392 159.93 392.11 154.59 392Z" fill="#0D0D0D"/><path d="M502 338C495.59 338.14 494.73 337 497.46 332.75 518.07 300.55 545.24 277.92 584.7 273.4 589.33 272.87 593.94 272.23 598.57 271.73 600.21 271.55 602.08 271.32 603.1 273.01 604.12 274.7 602.82 275.9 601.99 277.07 578.86 309.78 548.99 331.92 508.2 337.13 505.73 337.46 503.27 337.83 502 338Z" fill="#0D0D0D"/><path d="M191.6 375C191.6 376.44 191.6 377.27 191.6 378.1 191.34 382.68 190.04 383.42 186.02 380.94 175.003 374.029 165.145 365.423 156.81 355.44 138.99 334.44 130.29 309.63 126.33 282.82 126.18 281.82 126.23 280.82 126.18 279.82 125.97 275.93 127.61 275 130.99 276.82 138.296 280.784 145.143 285.539 151.41 291 175.16 311.11 186.97 337.32 190.77 367.65 190.94 368.97 191.18 370.28 191.33 371.6 191.48 372.92 191.54 374.28 191.6 375Z" fill="#0D0D0D"/><path d="M430.35 375.41C433.62 333.35 451.51 300.41 487.97 278.51 489.97 277.3 492.28 274.77 494.66 276.46 496.87 278.02 495.91 281.16 495.56 283.52 489.83 321.58 473.94 353.85 442 376.9 440.92 377.68 439.9 378.55 438.76 379.23 436.57 380.54 434.48 383.54 431.87 382.04 429.66 380.78 430.49 377.5 430.35 375.41Z" fill="#0D0D0D"/><path d="M120.56 338.06C92.67 335.57 68 325.57 46.82 307 37.1545 298.55 28.4699 289.041 20.93 278.65 19.69 276.93 17.81 275.08 19.3 272.86 20.62 270.86 22.92 271.92 24.87 272.08 37.87 273.16 50.67 274.9 62.96 279.52 90.22 289.78 109.81 308.81 124.62 333.3 127.1 337.39 126.26 338.27 120.56 338.06Z" fill="#0D0D0D"/><path d="M117.7 259C118.82 270.59 116.06 283.09 112.7 295.49 112.16 297.49 111.7 300.16 109.19 300.49 106.97 300.74 105.91 298.41 104.81 296.85 90.01 276.08 80.4 253.47 80.17 227.48 80.05 213.99 80.17 200.54 83.17 187.29 83.223 186.795 83.3098 186.303 83.43 185.82 84.17 183.82 84.08 181.09 86.57 180.55 88.86 180.05 89.88 182.46 91.1 183.91 109.06 205.21 118.94 229.43 117.7 259Z" fill="#0D0D0D"/><path d="M504.18 258.5C502.88 229.5 513.18 205.77 530.31 184.5 531.7 182.78 532.96 179.88 535.59 180.66 538.22 181.44 538.26 184.54 538.71 186.98 542.36 206.75 543.52 226.58 539.77 246.46 536.16 265.64 527.52 282.59 516.21 298.28 513.62 301.87 511.58 301.59 510.03 297.2 506.89 288.072 504.944 278.577 504.24 268.95 503.91 265.13 504.18 261.28 504.18 258.5Z" fill="#0D0D0D"/><path d="M415.37 340.65C417.788 340.519 420.2 341.015 422.37 342.09 424.3 343.09 425.06 344.62 423.84 346.61 410.11 368.95 398.54 392.83 378.36 410.61 370.86 417.2 362.49 422.08 352.45 423.71 346.08 424.71 344.08 423.02 345.83 416.91 354.26 387.57 370.37 363.65 396.25 346.91 402.28 343 409.27 341.83 415.37 340.65Z" fill="#0D0D0D"/><path d="M271.18 423.92C260.728 422.369 251.002 417.654 243.31 410.41 233.176 400.987 224.381 390.22 217.17 378.41 211.33 368.91 205.65 359.32 199.96 349.73 198.81 347.79 196.67 345.73 198.09 343.41 199.73 340.71 203.01 340.54 205.73 340.84 213.73 341.69 221.38 343.76 228.21 348.36 241.41 357.26 251.78 368.84 260.44 382.04 267.61 392.96 273.23 404.62 276.27 417.4 277.44 422.31 275.79 424.26 271.18 423.92Z" fill="#0D0D0D"/><path d="M52.13 169.37C52.35 150.54 59.01 133.59 67.73 117.3 71.452 110.203 75.8991 103.511 81 97.33 85.1 92.44 86.31 92.67 88.94 98.68 93.94 110.17 93.71 122.09 91.44 134.02 87.12 156.76 76.31 176.94 65.84 197.23 64.22 200.36 62.5 199.73 60.56 197.43 53.64 189.3 51.7 179.72 52.13 169.37Z" fill="#0D0D0D"/><path d="M569.57 170.47C570.79 179.75 568.23 188.33 562.57 196.03 559.52 200.21 557.88 200.22 555.47 195.7 543.95 174.1 532.87 152.3 529.54 127.58 528.16 117.31 529.12 107.32 533.48 97.83 535.77 92.83 537.67 92.52 540.77 96.77 554.33 115.35 565.23 135.19 569.09 158.26 569.304 159.248 569.444 160.251 569.51 161.26 569.61 164.2 569.57 167.19 569.57 170.47Z" fill="#0D0D0D"/><path d="M621.77 131.75C620.77 152.55 617.25 172.75 607.63 191.51 601.444 203.62 591.785 213.61 579.89 220.2 578.21 221.2 576.35 222.7 574.35 221.48 572.35 220.26 572.97 217.82 573.24 215.96 576.56 193.33 580.86 170.96 591.87 150.52 597.87 139.36 605.65 129.72 616.21 122.52 617.53 121.62 618.82 119.92 620.59 120.76 622.36 121.6 621.65 123.7 621.74 125.27 621.86 127.41 621.77 129.58 621.77 131.75Z" fill="#0D0D0D"/><path d="M48.74 216.63C48.84 222.37 47.5 223.27 42.32 220.36 27 211.8 16.6 198.77 10.26 182.78 3.12344 164.437-0.3257 144.867 0.11 125.19 0.11 123.62-0.57 121.59 1.27 120.68 3.11 119.77 4.37 121.38 5.69 122.3 16 129.48 23.56 139.1 29.87 149.82 37.83 163.36 48.48 201 48.74 216.63Z" fill="#0D0D0D"/><path d="M82.33 282.16C82.23 285.16 79.82 284.4 77.57 283.33 70.34 279.91 63.12 276.47 55.99 272.86 44.83 267.21 34 261 24.35 252.92 12.29 242.81 4.77 230 1 214.8-0.11 210.32 1.32 208.8 5.51 210.52 27.4 219.26 48.96 228.52 65.25 246.64 72.73 254.92 82.13 273.58 82.33 282.16Z" fill="#0D0D0D"/><path d="M540.2 279C542.864 267.4 548.249 256.599 555.91 247.49 568.66 232.65 585.37 223.83 602.83 216.11 606.79 214.363 610.79 212.697 614.83 211.11 616.63 210.4 618.64 209.11 620.49 210.6 622.49 212.18 621.2 214.32 620.75 216.16 616.01 235.29 604.22 249.16 588.28 260.1 574.73 269.35 559.68 275.76 545.08 283.01 541.37 284.85 540.09 283.82 540.2 279Z" fill="#0D0D0D"/><path d="M577.19 132.27C577.62 115.83 580.1 99.78 586.58 84.54 590.93 74.31 597.24 65.67 607.52 60.64 613.1 57.91 615.05 59 614.66 65.12 613.26 87.34 609.94 109.12 599.84 129.38 596.412 136.471 591.194 142.544 584.7 147 580.47 149.86 578.98 149.17 578.05 144.21 577.369 140.268 577.08 136.269 577.19 132.27Z" fill="#0D0D0D"/><path d="M44.64 132.83C44.55 136.83 44.96 140.83 43.98 144.75 42.92 149 41.36 149.75 37.7 147.34 30.9353 142.699 25.4939 136.379 21.91 129 14.63 114.75 11.14 99.37 9.24 83.6 8.43 76.85 6.81 70.2 7.07 63.3 7.22 59.3 8.47 58.41 12.29 59.79 19.52 62.4 24.79 67.25 29.06 73.37 38.19 86.43 41.84 101.37 43.64 116.88 44.26 122.19 45.08 127.47 44.64 132.83Z" fill="#0D0D0D"/><path d="M65.65 36.53C66.33 53.82 59.54 68.12 50.65 81.64 47.65 86.26 45.65 85.87 42.98 80.8 34.7 64.86 34.89 48.14 38.5 31.17 40.41 22.07 42.7 13 44.95 4 46.11-0.66 47.33-1.17 50.85 2 61.1 11.4 66.55 22.91 65.65 36.53Z" fill="#0D0D0D"/><path d="M556.13 33C555.91 24 559.8 12 570.61 2.67 574.7-0.85 575.69-0.69 577.11 4.62 581.11 19.39 585.25 34.22 586.11 49.5 586.814 60.7098 584.142 71.8734 578.44 81.55 575.97 85.71 574.08 85.89 571.5 81.92 562.76 68.56 556.12 54.37 556.13 33Z" fill="#0D0D0D"/><path d="M271.36 481.94C263.88 482 262.83 480.78 264.57 475.42 266.79 468.58 271.29 463.24 276.57 458.49 282.81 452.84 290.02 448.71 297.57 445.13 298.57 444.63 299.78 443.91 300.85 444.66 302.11 445.54 301.32 446.8 300.85 447.83 297.55 455.64 294.85 463.76 289.72 470.68 284.59 477.6 278.12 481.47 271.36 481.94Z" fill="#0D0D0D"/><path d="M351 482C344.13 481.77 337.37 477.31 332.28 470.64 327.28 464.15 324.19 456.54 321.71 448.74 321.06 446.74 320.95 443.8 324.1 445.3 338.35 452.07 352.1 459.62 357.56 476.02 359.3 481.25 358.53 482.14 351 482Z" fill="#0D0D0D"/></g></g></svg>