<svg viewBox="0 0 2485.4 1747.29" xmlns="http://www.w3.org/2000/svg" xmlns:xlink="http://www.w3.org/1999/xlink" overflow="hidden"><defs></defs><g id="Capa_2"><g id="Capa_1-2"><text fill="#F2F2F2" font-family="GandhiSerif-Regular,Gandhi Serif" font-size="800" transform="translate(6.39 1559.29)"><tspan letter-spacing="-0.04em">C</tspan><tspan letter-spacing="-0.01em" x="517.6" y="0">É</tspan><tspan letter-spacing="-0.06em" x="993.44" y="0">S</tspan><tspan letter-spacing="-0.03em" x="1362.23" y="0">A</tspan><tspan x="1931.82" y="0">R</tspan></text><text fill="#F2F2F2" font-family="Montserrat-Regular,Montserrat" font-size="200" transform="translate(473.51 818.99)"><tspan letter-spacing="-0.02em">B</tspan><tspan letter-spacing="-0.02em" x="137.48" y="0">I</tspan><tspan letter-spacing="-0.02em" x="195.02" y="0">E</tspan><tspan letter-spacing="-0.02em" x="322.18" y="0">N</tspan><tspan letter-spacing="-0.02em" x="484.58" y="0">E</tspan><tspan x="612.31" y="0">S </tspan><tspan letter-spacing="0.01em" x="793.11" y="0">R</tspan><tspan letter-spacing="-0.02em" x="941.59" y="0">A</tspan><tspan letter-spacing="-0.03em" x="1086.71" y="0">Í</tspan><tspan letter-spacing="-0.03em" x="1143.17" y="0">C</tspan><tspan letter-spacing="-0.02em" x="1283.65" y="0">E</tspan><tspan x="1411.38" y="0">S</tspan></text><path d="M1085 485.69C1080.48 485.91 1080.74 483.18 1081.16 480.69 1082.74 471.17 1088.16 463.86 1095.16 457.69 1111.96 442.97 1132.16 435.88 1153.7 431.56 1166.84 428.92 1179.99 427.56 1193.36 429.5 1201.65 430.71 1202.48 432.5 1198.09 439.68 1188.72 455.05 1174.09 463.19 1157.87 469.24 1138.87 476.32 1119.01 479.53 1099.21 483.09 1094.34 483.94 1089.44 484.88 1085 485.69Z" fill="#F2F2F2"/><path d="M1303.47 428.51C1328.78 429.3 1353.04 434.51 1375.34 446.83 1388.57 454.12 1399.85 463.62 1404.03 479.14 1405.77 485.61 1405.21 486.35 1398.78 485.14 1373.78 480.57 1348.4 477.47 1324.51 468.14 1311.01 462.86 1298.69 455.7 1290.07 443.52 1288.35 441.09 1286.95 438.42 1285.48 435.82 1284.01 433.22 1284.89 431.45 1287.69 430.49 1292.79 428.884 1298.13 428.213 1303.47 428.51Z" fill="#F2F2F2"/><path d="M1077.24 434.85C1059.42 435.031 1041.62 433.46 1024.1 430.16 1018.5 429.07 1017.78 427.71 1020.76 422.91 1028.61 410.24 1041.19 405.19 1054.95 402.68 1082.77 397.61 1109.95 401.29 1136.78 409.35 1138.06 409.733 1139.31 410.191 1140.53 410.72 1143.68 412.09 1143.87 414.15 1141.71 416.57 1137.75 420.877 1132.93 424.304 1127.56 426.63 1115.38 432.17 1102.56 434.48 1089.24 434.84 1085.24 434.94 1081.23 434.85 1077.24 434.85Z" fill="#F2F2F2"/><path d="M1408.38 435C1391.18 434.9 1374.12 434.1 1358.09 426.75 1352.96 424.344 1348.32 421.023 1344.38 416.95 1341.27 413.83 1342.02 411.95 1345.8 410.43 1355.93 406.43 1366.56 404.43 1377.24 402.78 1396.43 399.78 1415.63 399.17 1434.74 403.59 1446.96 406.41 1457.65 411.59 1464.67 422.59 1467.92 427.68 1467.37 428.99 1461.47 430.13 1443.96 433.407 1426.19 435.037 1408.38 435Z" fill="#F2F2F2"/><path d="M1395.3 392.18C1390.79 392.187 1386.31 391.342 1382.11 389.69 1377.34 387.88 1376.79 385.63 1380.44 382.02 1386.56 376.118 1393.18 370.764 1400.23 366.02 1417.75 353.9 1436.18 343.68 1457.23 339.14 1467.32 336.97 1477.4 336.84 1487.23 340.54 1489.25 341.303 1491.17 342.31 1492.95 343.54 1497.42 346.65 1497.48 349.39 1492.95 352.36 1473.66 364.91 1453.95 376.78 1432.4 385.07 1420.58 389.71 1408 392.121 1395.3 392.18Z" fill="#F2F2F2"/><path d="M1086.37 392C1074.11 392.39 1062.69 388.82 1051.57 384.26 1031.04 375.951 1011.53 365.312 993.43 352.55 987.61 348.4 987.82 346.22 994.11 342.6 1005.41 336.12 1017.6 336.6 1029.52 339.4 1053.08 344.91 1073.66 356.73 1092.63 371.47 1096.57 374.53 1100.42 377.73 1104.06 381.13 1109.06 385.76 1108.55 387.49 1102.06 390.01 1097 392 1091.71 392.11 1086.37 392Z" fill="#F2F2F2"/><path d="M1433.79 338C1427.38 338.14 1426.52 337 1429.25 332.75 1449.86 300.55 1477.03 277.92 1516.49 273.4 1521.12 272.87 1525.73 272.23 1530.36 271.73 1532 271.55 1533.87 271.32 1534.89 273.01 1535.91 274.7 1534.61 275.9 1533.78 277.07 1510.65 309.78 1480.78 331.92 1439.99 337.13 1437.52 337.46 1435.05 337.83 1433.79 338Z" fill="#F2F2F2"/><path d="M1123.39 375C1123.39 376.44 1123.39 377.27 1123.39 378.1 1123.13 382.68 1121.83 383.42 1117.81 380.94 1106.79 374.029 1096.93 365.423 1088.6 355.44 1070.78 334.44 1062.08 309.63 1058.12 282.82 1057.97 281.82 1058.02 280.82 1057.97 279.82 1057.76 275.93 1059.4 275 1062.78 276.82 1070.08 280.785 1076.93 285.54 1083.19 291 1106.94 311.11 1118.75 337.32 1122.55 367.65 1122.72 368.97 1122.96 370.28 1123.11 371.6 1123.26 372.92 1123.33 374.28 1123.39 375Z" fill="#F2F2F2"/><path d="M1362.13 375.41C1365.4 333.35 1383.29 300.41 1419.75 278.51 1421.75 277.3 1424.06 274.77 1426.44 276.46 1428.65 278.02 1427.69 281.16 1427.34 283.52 1421.61 321.58 1405.72 353.85 1373.78 376.9 1372.7 377.68 1371.68 378.55 1370.54 379.23 1368.35 380.54 1366.26 383.54 1363.65 382.04 1361.45 380.78 1362.28 377.5 1362.13 375.41Z" fill="#F2F2F2"/><path d="M1052.35 338.06C1024.46 335.57 999.75 325.57 978.61 307 968.945 298.55 960.26 289.041 952.72 278.65 951.48 276.93 949.6 275.08 951.09 272.86 952.41 270.86 954.71 271.92 956.66 272.08 969.66 273.16 982.46 274.9 994.75 279.52 1022.01 289.78 1041.6 308.81 1056.41 333.3 1058.89 337.39 1058 338.27 1052.35 338.06Z" fill="#F2F2F2"/><path d="M1049.49 259C1050.61 270.59 1047.85 283.09 1044.49 295.49 1043.95 297.49 1043.49 300.16 1040.98 300.49 1038.76 300.74 1037.7 298.41 1036.6 296.85 1021.8 276.08 1012.19 253.47 1011.96 227.48 1011.84 213.99 1011.96 200.54 1014.96 187.29 1015.01 186.795 1015.1 186.303 1015.22 185.82 1015.96 183.82 1015.87 181.09 1018.36 180.55 1020.65 180.05 1021.67 182.46 1022.89 183.91 1040.85 205.21 1050.72 229.43 1049.49 259Z" fill="#F2F2F2"/><path d="M1436 258.5C1434.7 229.5 1445 205.77 1462.13 184.5 1463.52 182.78 1464.78 179.88 1467.41 180.66 1470.04 181.44 1470.08 184.54 1470.53 186.98 1474.18 206.75 1475.34 226.58 1471.59 246.46 1467.98 265.64 1459.34 282.59 1448.03 298.28 1445.44 301.87 1443.4 301.59 1441.85 297.2 1438.71 288.072 1436.76 278.577 1436.06 268.95 1435.7 265.13 1436 261.28 1436 258.5Z" fill="#F2F2F2"/><path d="M1347.16 340.65C1349.58 340.519 1351.99 341.015 1354.16 342.09 1356.09 343.09 1356.85 344.62 1355.63 346.61 1341.9 368.95 1330.33 392.83 1310.15 410.61 1302.65 417.2 1294.28 422.08 1284.24 423.71 1277.87 424.71 1275.87 423.02 1277.62 416.91 1286.05 387.57 1302.16 363.65 1328.04 346.91 1334.06 343 1341.05 341.83 1347.16 340.65Z" fill="#F2F2F2"/><path d="M1203 423.92C1192.55 422.369 1182.82 417.654 1175.13 410.41 1165 400.987 1156.2 390.22 1148.99 378.41 1143.15 368.91 1137.47 359.32 1131.78 349.73 1130.63 347.79 1128.49 345.73 1129.91 343.41 1131.55 340.71 1134.83 340.54 1137.55 340.84 1145.55 341.69 1153.2 343.76 1160.03 348.36 1173.23 357.26 1183.6 368.84 1192.26 382.04 1199.43 392.96 1205.05 404.62 1208.09 417.4 1209.22 422.31 1207.58 424.26 1203 423.92Z" fill="#F2F2F2"/><path d="M983.91 169.37C984.13 150.54 990.79 133.59 999.51 117.3 1003.22 110.194 1007.65 103.492 1012.74 97.3 1016.84 92.41 1018.05 92.64 1020.68 98.65 1025.68 110.14 1025.45 122.06 1023.18 133.99 1018.86 156.73 1008.05 176.91 997.58 197.2 995.96 200.33 994.24 199.7 992.3 197.4 985.43 189.3 983.48 179.72 983.91 169.37Z" fill="#F2F2F2"/><path d="M1501.36 170.47C1502.58 179.75 1500.02 188.33 1494.36 196.03 1491.31 200.21 1489.67 200.22 1487.26 195.7 1475.74 174.1 1464.66 152.3 1461.33 127.58 1459.95 117.31 1460.91 107.32 1465.27 97.83 1467.56 92.83 1469.46 92.52 1472.56 96.77 1486.12 115.35 1497.02 135.19 1500.88 158.26 1501.09 159.248 1501.23 160.251 1501.3 161.26 1501.39 164.2 1501.36 167.19 1501.36 170.47Z" fill="#F2F2F2"/><path d="M1553.55 131.75C1552.55 152.55 1549.03 172.75 1539.41 191.51 1533.22 203.62 1523.57 213.61 1511.67 220.2 1509.99 221.2 1508.13 222.7 1506.13 221.48 1504.13 220.26 1504.75 217.82 1505.02 215.96 1508.34 193.33 1512.64 170.96 1523.65 150.52 1529.65 139.36 1537.43 129.72 1547.99 122.52 1549.31 121.62 1550.6 119.92 1552.37 120.76 1554.14 121.6 1553.43 123.7 1553.52 125.27 1553.64 127.41 1553.55 129.58 1553.55 131.75Z" fill="#F2F2F2"/><path d="M980.53 216.63C980.63 222.37 979.29 223.27 974.11 220.36 958.82 211.8 948.39 198.77 942.05 182.78 934.913 164.437 931.464 144.867 931.9 125.19 931.9 123.62 931.22 121.59 933.06 120.68 934.9 119.77 936.16 121.38 937.48 122.3 947.79 129.49 955.35 139.11 961.65 149.82 969.62 163.36 980.26 201 980.53 216.63Z" fill="#F2F2F2"/><path d="M1014.12 282.16C1014.02 285.16 1011.61 284.4 1009.36 283.33 1002.13 279.91 994.91 276.47 987.78 272.86 976.61 267.21 965.78 261 956.14 252.92 944.08 242.81 936.55 229.92 932.81 214.8 931.7 210.32 933.13 208.8 937.32 210.52 959.21 219.26 980.77 228.52 997.06 246.64 1004.51 254.92 1013.92 273.58 1014.12 282.16Z" fill="#F2F2F2"/><path d="M1472 279C1474.66 267.4 1480.05 256.599 1487.71 247.49 1500.46 232.65 1517.17 223.83 1534.63 216.11 1538.59 214.363 1542.59 212.697 1546.63 211.11 1548.43 210.4 1550.44 209.11 1552.29 210.6 1554.29 212.18 1553 214.32 1552.55 216.16 1547.81 235.29 1536.02 249.16 1520.08 260.1 1506.53 269.35 1491.48 275.76 1476.88 283.01 1473.15 284.85 1471.88 283.82 1472 279Z" fill="#F2F2F2"/><path d="M1509 132.27C1509.43 115.83 1511.91 99.78 1518.39 84.54 1522.74 74.31 1529.05 65.67 1539.33 60.64 1544.91 57.91 1546.86 59 1546.47 65.12 1545.07 87.34 1541.75 109.12 1531.65 129.38 1528.21 136.474 1522.98 142.548 1516.48 147 1512.25 149.86 1510.76 149.17 1509.83 144.21 1509.16 140.267 1508.88 136.268 1509 132.27Z" fill="#F2F2F2"/><path d="M976.43 132.83C976.34 136.83 976.75 140.83 975.77 144.75 974.71 149 973.15 149.75 969.49 147.34 962.722 142.701 957.277 136.38 953.69 129 946.41 114.75 942.92 99.37 941.02 83.6 940.21 76.85 938.59 70.2 938.85 63.3 939 59.3 940.25 58.41 944.07 59.79 951.3 62.4 956.57 67.25 960.84 73.37 969.97 86.43 973.62 101.37 975.42 116.88 976 122.19 976.86 127.47 976.43 132.83Z" fill="#F2F2F2"/><path d="M997.44 36.53C998.12 53.82 991.33 68.12 982.44 81.64 979.44 86.26 977.44 85.87 974.77 80.8 966.49 64.86 966.68 48.14 970.29 31.17 972.22 22.07 974.52 13.04 976.76 4 977.92-0.66 979.14-1.17 982.66 2 992.89 11.4 998.33 22.91 997.44 36.53Z" fill="#F2F2F2"/><path d="M1487.91 33C1487.69 24 1491.58 12 1502.39 2.67 1506.48-0.85 1507.47-0.69 1508.89 4.62 1512.89 19.39 1517.03 34.22 1517.89 49.5 1518.59 60.7098 1515.92 71.8734 1510.22 81.55 1507.75 85.71 1505.86 85.89 1503.28 81.92 1494.54 68.56 1487.91 54.37 1487.91 33Z" fill="#F2F2F2"/><path d="M1203.14 481.94C1195.66 482 1194.61 480.78 1196.35 475.42 1198.57 468.58 1203.07 463.24 1208.35 458.49 1214.59 452.84 1221.8 448.71 1229.35 445.13 1230.35 444.63 1231.56 443.91 1232.63 444.66 1233.89 445.54 1233.1 446.8 1232.63 447.83 1229.33 455.64 1226.63 463.76 1221.5 470.68 1216.37 477.6 1209.9 481.47 1203.14 481.94Z" fill="#F2F2F2"/><path d="M1282.78 482C1275.91 481.77 1269.15 477.31 1264.06 470.64 1259.06 464.15 1255.97 456.54 1253.49 448.74 1252.84 446.74 1252.73 443.8 1255.88 445.3 1270.13 452.07 1283.88 459.62 1289.34 476.02 1291.08 481.25 1290.32 482.14 1282.78 482Z" fill="#F2F2F2"/></g></g></svg>