<svg width="600" height="259" xmlns="http://www.w3.org/2000/svg" xmlns:xlink="http://www.w3.org/1999/xlink" overflow="hidden"><defs><clipPath id="clip0"><rect x="340" y="49" width="600" height="259"/></clipPath><clipPath id="clip1"><rect x="603" y="50" width="74" height="58"/></clipPath><clipPath id="clip2"><rect x="603" y="50" width="74" height="58"/></clipPath><clipPath id="clip3"><rect x="603" y="50" width="74" height="58"/></clipPath></defs><g clip-path="url(#clip0)" transform="translate(-340 -49)"><text fill="#0D0D0D" font-family="Colonna MT,Colonna MT_MSFontService,sans-serif" font-weight="400" font-size="96" transform="translate(398.57 212)">MALLORCA<tspan font-family="Tw Cen MT Condensed Extra Bold,Tw Cen MT Condensed Extra Bold_MSFontService,sans-serif" font-weight="800" font-stretch="condensed" font-size="27" x="121.78" y="-65">PROYECTO RESIDENCIAL</tspan></text><g clip-path="url(#clip1)"><g clip-path="url(#clip2)"><g clip-path="url(#clip3)"><path d="M18.2385 57.7989C17.7006 57.825 17.7315 57.5002 17.7815 57.2038 17.9695 56.0709 18.6145 55.201 19.4476 54.4668 21.4468 52.715 23.8507 51.8713 26.414 51.3572 27.9777 51.043 29.5426 50.8812 31.1337 51.112 32.1203 51.256 32.219 51.4691 31.6966 52.3235 30.5815 54.1526 28.8405 55.1213 26.9103 55.8412 24.6492 56.6838 22.2858 57.0658 19.9295 57.4894 19.344 57.5906 18.7609 57.7025 18.2385 57.7989Z" fill="#0D0D0D" transform="matrix(1 0 0 1.00311 603 50.01)"/><path d="M44.2313 50.9942C47.2432 51.0882 50.1303 51.7082 52.784 53.1744 54.3585 54.0419 55.7008 55.1724 56.1983 57.0194 56.4053 57.7893 56.3387 57.8774 55.5735 57.7334 52.5984 57.1896 49.5781 56.8206 46.7351 55.7103 45.1285 55.082 43.6624 54.2299 42.6366 52.7805 42.4319 52.4913 42.2653 52.1736 42.0904 51.8641 41.9154 51.5547 42.0202 51.3441 42.3534 51.2299 42.9601 51.0387 43.5962 50.9589 44.2313 50.9942Z" fill="#0D0D0D" transform="matrix(1 0 0 1.00311 603 50.01)"/><path d="M17.3091 51.7487C15.188 51.7702 13.0698 51.5833 10.9852 51.1906 10.3188 51.0609 10.2331 50.899 10.5877 50.3278 11.5219 48.82 13.019 48.2191 14.6565 47.9204 17.9672 47.317 21.2017 47.755 24.3945 48.7141 24.5464 48.7597 24.6954 48.8142 24.8408 48.8772 25.2157 49.0402 25.2383 49.2853 24.9812 49.5733 24.5099 50.0859 23.9363 50.4937 23.2973 50.7705 21.8479 51.4298 20.3222 51.7047 18.7371 51.7475 18.2611 51.7594 17.7851 51.7487 17.3091 51.7487Z" fill="#0D0D0D" transform="matrix(1 0 0 1.00311 603 50.01)"/><path d="M56.7171 51.7666C54.6702 51.7547 52.64 51.6595 50.7324 50.7848 50.1222 50.4985 49.5693 50.1032 49.1009 49.6185 48.7308 49.2473 48.82 49.0235 49.2699 48.8426 50.4754 48.3666 51.7404 48.1286 53.0113 47.9323 55.295 47.5753 57.5799 47.5027 59.854 48.0287 61.3083 48.3642 62.5804 48.9807 63.4158 50.2897 63.8026 50.8955 63.7371 51.0513 63.035 51.187 60.9517 51.577 58.8366 51.771 56.7171 51.7666Z" fill="#0D0D0D" transform="matrix(1 0 0 1.00311 603 50.01)"/><path d="M55.1605 46.6708C54.6234 46.6717 54.0908 46.5711 53.5909 46.3745 53.0232 46.1591 52.9578 45.8914 53.3922 45.4618 54.12 44.7594 54.908 44.1222 55.7472 43.5577 57.8322 42.1154 60.0254 40.8992 62.5304 40.3589 63.7312 40.1006 64.9307 40.0852 66.1005 40.5255 66.3412 40.6163 66.5698 40.7361 66.7812 40.8825 67.3132 41.2526 67.3203 41.5787 66.7812 41.9321 64.4857 43.4256 62.1401 44.8382 59.5756 45.8247 58.1687 46.3769 56.6719 46.6638 55.1605 46.6708Z" fill="#0D0D0D" transform="matrix(1 0 0 1.00311 603 50.01)"/><path d="M18.3968 46.6494C16.9378 46.6958 15.5788 46.271 14.2554 45.7283 11.8122 44.7395 9.49074 43.4734 7.33657 41.9547 6.64397 41.4608 6.66896 41.2014 7.41749 40.7706 8.76223 39.9995 10.2129 40.0566 11.6314 40.3898 14.4351 41.0455 16.8842 42.4522 19.1417 44.2063 19.6106 44.5704 20.0688 44.9512 20.5019 45.3558 21.097 45.9068 21.0363 46.1127 20.2639 46.4126 19.6653 46.6494 19.0322 46.6625 18.3968 46.6494Z" fill="#0D0D0D" transform="matrix(1 0 0 1.00311 603 50.01)"/><path d="M59.7398 40.2232C58.977 40.2399 58.8746 40.1042 59.1995 39.5984 61.6522 35.7665 64.8855 33.0735 69.5814 32.5356 70.1324 32.4725 70.681 32.3963 71.232 32.3368 71.4271 32.3154 71.6497 32.2881 71.7711 32.4892 71.8924 32.6903 71.7377 32.8331 71.639 32.9723 68.8864 36.8649 65.3318 39.4997 60.4776 40.1197 60.1837 40.159 59.8909 40.203 59.7398 40.2232Z" fill="#0D0D0D" transform="matrix(1 0 0 1.00311 603 50.01)"/><path d="M22.8011 44.6263C22.8011 44.7977 22.8011 44.8965 22.8011 44.9953 22.7701 45.5403 22.6154 45.6284 22.137 45.3332 20.826 44.5108 19.6528 43.4866 18.661 42.2986 16.5403 39.7996 15.505 36.8471 15.0337 33.6566 15.0159 33.5376 15.0218 33.4186 15.0159 33.2996 14.9909 32.8367 15.186 32.726 15.5883 32.9426 16.4577 33.4143 17.2725 33.9802 18.0183 34.63 20.8447 37.0232 22.2501 40.1423 22.7023 43.7517 22.7225 43.9088 22.7511 44.0646 22.769 44.2217 22.7868 44.3788 22.7939 44.5407 22.8011 44.6263Z" fill="#0D0D0D" transform="matrix(1 0 0 1.00311 603 50.01)"/><path d="M51.2132 44.6751C51.6023 39.6698 53.7313 35.7499 58.0702 33.1437 58.3082 32.9997 58.5831 32.6986 58.8663 32.8997 59.1293 33.0854 59.0151 33.459 58.9734 33.7399 58.2915 38.2692 56.4006 42.1094 52.5996 44.8525 52.4711 44.9453 52.3497 45.0488 52.214 45.1297 51.9534 45.2856 51.7047 45.6426 51.3941 45.4641 51.1311 45.3142 51.2299 44.9239 51.2132 44.6751Z" fill="#0D0D0D" transform="matrix(1 0 0 1.00311 603 50.01)"/><path d="M14.3471 40.2304C11.0281 39.934 8.09224 38.744 5.57175 36.5341 4.42152 35.5285 3.38802 34.3969 2.49075 33.1603 2.34318 32.9557 2.11945 32.7355 2.29677 32.4713 2.45385 32.2333 2.72756 32.3595 2.95962 32.3785 4.50667 32.507 6.02991 32.7141 7.49247 33.2639 10.7365 34.4849 13.0678 36.7495 14.8302 39.6639 15.1254 40.1506 15.0254 40.2553 14.3471 40.2304Z" fill="#0D0D0D" transform="matrix(1 0 0 1.00311 603 50.01)"/><path d="M14.0067 30.8219C14.14 32.2012 13.8116 33.6887 13.4117 35.1644 13.3474 35.4024 13.2927 35.7201 12.994 35.7594 12.7298 35.7891 12.6037 35.5119 12.4728 35.3262 10.7115 32.8545 9.56789 30.1638 9.54052 27.0709 9.52624 25.4656 9.54052 23.865 9.89753 22.2882 9.90384 22.2293 9.91416 22.1707 9.92847 22.1132 10.0165 21.8752 10.0058 21.5504 10.3021 21.4861 10.5747 21.4266 10.696 21.7134 10.8412 21.886 12.9785 24.4207 14.1543 27.303 14.0067 30.8219Z" fill="#0D0D0D" transform="matrix(1 0 0 1.00311 603 50.01)"/><path d="M59.9992 30.7624C59.8445 27.3113 61.0703 24.4874 63.1088 21.9562 63.2742 21.7515 63.4242 21.4064 63.7371 21.4992 64.0501 21.592 64.0549 21.9609 64.1084 22.2513 64.5428 24.604 64.6808 26.9638 64.2346 29.3296 63.805 31.6121 62.7768 33.6292 61.4308 35.4964 61.1226 35.9236 60.8799 35.8903 60.6954 35.3679 60.3217 34.2816 60.0901 33.1517 60.0064 32.006 59.9671 31.5514 59.9992 31.0933 59.9992 30.7624Z" fill="#0D0D0D" transform="matrix(1 0 0 1.00311 603 50.01)"/><path d="M49.4305 40.5386C49.7183 40.523 50.0053 40.582 50.2635 40.7099 50.4932 40.8289 50.5837 41.011 50.4385 41.2478 48.8046 43.9064 47.4277 46.7482 45.0262 48.8641 44.1337 49.6483 43.1376 50.229 41.9428 50.423 41.1848 50.542 40.9468 50.3409 41.155 49.6138 42.1582 46.1222 44.0754 43.2757 47.1552 41.2835 47.8728 40.8182 48.7046 40.679 49.4305 40.5386Z" fill="#0D0D0D" transform="matrix(1 0 0 1.00311 603 50.01)"/><path d="M32.2714 50.448C31.0276 50.2634 29.8701 49.7023 28.9548 48.8403 27.7488 47.7189 26.7021 46.4376 25.844 45.0321 25.149 43.9016 24.4731 42.7604 23.796 41.6191 23.6591 41.3883 23.4044 41.1431 23.5734 40.867 23.7686 40.5457 24.1589 40.5255 24.4826 40.5612 25.4346 40.6623 26.345 40.9087 27.1578 41.4561 28.7287 42.5152 29.9627 43.8933 30.9933 45.4641 31.8465 46.7636 32.5154 48.1512 32.8771 49.6721 33.0164 50.2564 32.82 50.4885 32.2714 50.448Z" fill="#0D0D0D" transform="matrix(1 0 0 1.00311 603 50.01)"/><path d="M6.20366 20.1556C6.22984 17.9148 7.0224 15.8977 8.06011 13.9591 8.50305 13.1146 9.03227 12.3182 9.63929 11.5826 10.1272 11.0007 10.2712 11.0281 10.5842 11.7433 11.1792 13.1106 11.1518 14.5291 10.8817 15.9489 10.3676 18.655 9.08116 21.0565 7.8352 23.4711 7.64241 23.8436 7.43772 23.7686 7.20686 23.4949 6.38335 22.5274 6.15249 21.3873 6.20366 20.1556Z" fill="#0D0D0D" transform="matrix(1 0 0 1.00311 603 50.01)"/><path d="M67.7809 20.2865C67.9261 21.3909 67.6214 22.4119 66.9478 23.3283 66.5849 23.8257 66.3897 23.8269 66.1029 23.289 64.732 20.7185 63.4134 18.1242 63.0172 15.1825 62.8529 13.9603 62.9672 12.7715 63.486 11.6421 63.7586 11.0471 63.9847 11.0102 64.3536 11.516 65.9673 13.7271 67.2644 16.0881 67.7238 18.8335 67.7492 18.9511 67.7659 19.0704 67.7737 19.1905 67.7856 19.5404 67.7809 19.8962 67.7809 20.2865Z" fill="#0D0D0D" transform="matrix(1 0 0 1.00311 603 50.01)"/><path d="M73.9929 15.6787C73.8739 18.154 73.455 20.5579 72.3102 22.7904 71.574 24.2315 70.4245 25.4204 69.009 26.2046 68.8091 26.3236 68.5877 26.5021 68.3497 26.3569 68.1117 26.2117 68.1855 25.9214 68.2176 25.7 68.6127 23.007 69.1244 20.3449 70.4347 17.9124 71.1487 16.5843 72.0745 15.4371 73.3312 14.5803 73.4883 14.4732 73.6418 14.2709 73.8524 14.3709 74.0631 14.4708 73.9786 14.7207 73.9893 14.9076 74.0036 15.1622 73.9929 15.4205 73.9929 15.6787Z" fill="#0D0D0D" transform="matrix(1 0 0 1.00311 603 50.01)"/><path d="M5.80023 25.7797C5.81214 26.4628 5.65267 26.5699 5.03623 26.2236 3.2131 25.205 1.97546 23.6543 1.22098 21.7515 0.371701 19.5686-0.0387595 17.2397 0.0130904 14.8981 0.0130904 14.7112-0.067832 14.4696 0.151135 14.3614 0.370101 14.2531 0.520046 14.4447 0.67713 14.5541 1.90406 15.4086 2.80372 16.5534 3.55464 17.8291 4.50191 19.4404 5.76929 23.9197 5.80023 25.7797Z" fill="#0D0D0D" transform="matrix(1 0 0 1.00311 603 50.01)"/><path d="M9.79757 33.5781C9.78567 33.9351 9.49887 33.8446 9.23111 33.7173 8.37071 33.3103 7.51151 32.9009 6.66301 32.4713 5.33493 31.7989 4.04612 31.0599 2.89774 30.0984 1.46255 28.8953 0.567647 27.3708 0.119004 25.562-0.0130904 25.0288 0.157085 24.8479 0.65571 25.0526 3.2607 26.0927 5.82642 27.1947 7.76498 29.351 8.65513 30.3364 9.77376 32.557 9.79757 33.5781Z" fill="#0D0D0D" transform="matrix(1 0 0 1.00311 603 50.01)"/><path d="M64.2857 33.202C64.6028 31.8216 65.2436 30.5362 66.1553 29.4522 67.6726 27.6862 69.6611 26.6366 71.7389 25.7179 72.2102 25.51 72.6862 25.3117 73.167 25.1228 73.3812 25.0384 73.6204 24.8848 73.8405 25.0622 74.0785 25.2502 73.925 25.5049 73.8715 25.7238 73.3074 28.0004 71.9043 29.6509 70.0074 30.9528 68.3949 32.0536 66.6039 32.8164 64.8665 33.6792 64.425 33.8982 64.2727 33.7756 64.2857 33.202Z" fill="#0D0D0D" transform="matrix(1 0 0 1.00311 603 50.01)"/><path d="M68.6877 15.7406C68.7389 13.7842 69.034 11.8742 69.8051 10.0606 70.3228 8.84316 71.0737 7.81497 72.2971 7.21638 72.9611 6.8915 73.1932 7.02121 73.1467 7.74951 72.9801 10.3938 72.585 12.9857 71.3831 15.3967 70.9752 16.2405 70.3542 16.9632 69.5814 17.4935 69.078 17.8339 68.9007 17.7518 68.79 17.1615 68.709 16.6924 68.6746 16.2165 68.6877 15.7406Z" fill="#0D0D0D" transform="matrix(1 0 0 1.00311 603 50.01)"/><path d="M5.31232 15.8072C5.30161 16.2833 5.3504 16.7593 5.23378 17.2258 5.10763 17.7315 4.92199 17.8208 4.48644 17.534 3.68141 16.9817 3.03387 16.2296 2.60737 15.3515 1.74102 13.6557 1.3257 11.8254 1.09959 9.9487 1.0032 9.14543 0.810414 8.35405 0.841355 7.53293 0.859206 7.05691 1.00796 6.951 1.46255 7.11522 2.32295 7.42582 2.9501 8.00299 3.45824 8.73129 4.54475 10.2855 4.97911 12.0634 5.19332 13.9091 5.2671 14.541 5.36468 15.1694 5.31232 15.8072Z" fill="#0D0D0D" transform="matrix(1 0 0 1.00311 603 50.01)"/><path d="M7.81259 4.3472C7.89351 6.40477 7.08547 8.10652 6.02753 9.71545 5.67052 10.2652 5.43251 10.2188 5.11477 9.61549 4.12942 7.71857 4.15204 5.72883 4.58164 3.70934 4.80893 2.62641 5.08145 1.54705 5.34921 0.476014 5.48726-0.0785424 5.63244-0.139234 6.05133 0.238007 7.27112 1.35664 7.91969 2.72637 7.81259 4.3472Z" fill="#0D0D0D" transform="matrix(1 0 0 1.00311 603 50.01)"/><path d="M66.1815 3.92712C66.1553 2.85609 66.6182 1.42804 67.9046 0.31774 68.3914-0.101153 68.5092-0.0821125 68.6782 0.549797 69.1542 2.30748 69.6469 4.0723 69.7492 5.89068 69.833 7.22468 69.515 8.55319 68.8364 9.70474 68.5425 10.1998 68.3176 10.2212 68.0106 9.74877 66.9705 8.15889 66.1803 6.47022 66.1815 3.92712Z" fill="#0D0D0D" transform="matrix(1 0 0 1.00311 603 50.01)"/><path d="M32.2928 57.3526C31.4027 57.3597 31.2777 57.2145 31.4848 56.5767 31.749 55.7627 32.2845 55.1272 32.9128 54.562 33.6554 53.8896 34.5134 53.3981 35.4119 52.9721 35.5309 52.9126 35.6749 52.8269 35.8022 52.9161 35.9522 53.0209 35.8582 53.1708 35.8022 53.2934 35.4095 54.2228 35.0882 55.1891 34.4777 56.0126 33.8672 56.8361 33.0973 57.2967 32.2928 57.3526Z" fill="#0D0D0D" transform="matrix(1 0 0 1.00311 603 50.01)"/><path d="M41.7703 57.3597C40.9527 57.3324 40.1482 56.8016 39.5425 56.0079 38.9475 55.2355 38.5798 54.3299 38.2846 53.4017 38.2073 53.1637 38.1942 52.8138 38.5691 52.9923 40.2649 53.798 41.9012 54.6964 42.5509 56.6481 42.758 57.2705 42.6664 57.3764 41.7703 57.3597Z" fill="#0D0D0D" transform="matrix(1 0 0 1.00311 603 50.01)"/></g></g></g></g></svg>